<svg width="165" height="42" viewBox="0 0 165 42" fill="none" xmlns="http://www.w3.org/2000/svg">
<path d="M20.5664 0.992188H21.5039C25.7096 0.992188 29.9089 2.61328 34.1016 5.85547C37.2135 8.98047 39.1146 11.793 39.8047 14.293C40.2734 15.3346 40.5859 16.526 40.7422 17.8672C40.8984 19.1953 40.9766 20.0612 40.9766 20.4648V21.5195V22.3594C40.6641 25.237 40.0326 27.6523 39.082 29.6055C36.9857 33.8503 33.7826 37.0534 29.4727 39.2148C26.3867 40.4909 23.6133 41.1289 21.1523 41.1289H20.918C15.944 41.1289 11.3932 39.306 7.26562 35.6602C4.67448 32.9648 3.05339 30.5885 2.40234 28.5312C1.6862 26.9297 1.21094 24.9115 0.976562 22.4766V19.9766C0.976562 15.888 2.67578 11.7344 6.07422 7.51562C10.5273 3.16667 15.3581 0.992188 20.5664 0.992188ZM12.9688 13.8047V14.5273C13.1901 15.7122 13.9388 16.3047 15.2148 16.3047C16.2565 16.3047 16.9727 15.7122 17.3633 14.5273V14.4102C17.3633 13.1862 16.6081 12.4701 15.0977 12.2617C14.1732 12.2617 13.4635 12.776 12.9688 13.8047ZM23.1836 19.0391H22.9297V17.8477H19.1406V29.1367C19.1667 29.293 19.2448 29.3711 19.375 29.3711H22.6953C22.8516 29.3711 22.9297 29.293 22.9297 29.1367V23.082C23.125 21.4154 23.8021 20.582 24.9609 20.582C26.3021 20.582 26.9727 21.4154 26.9727 23.082V29.1367C26.9987 29.293 27.0768 29.3711 27.207 29.3711H30.7812V21.8906C30.7812 20.5495 30.1432 19.319 28.8672 18.1992C27.9036 17.8086 27.3112 17.6133 27.0898 17.6133H25.8984C24.974 17.6523 24.069 18.1276 23.1836 19.0391ZM13.2031 18.082V29.1367C13.2292 29.293 13.3073 29.3711 13.4375 29.3711H16.7578C16.9141 29.3711 16.9922 29.293 16.9922 29.1367V18.3164L16.7578 17.8477H13.4375C13.2812 17.8737 13.2031 17.9518 13.2031 18.082ZM82.1289 1.01172H83.3398C88.2878 1.01172 92.9753 3.11458 97.4023 7.32031C100.514 11.0964 102.227 14.5143 102.539 17.5742C102.773 19.0195 102.891 19.9375 102.891 20.3281V21.9883C102.891 24.6706 101.979 27.776 100.156 31.3047C97.5 35.6536 93.7174 38.6745 88.8086 40.3672C86.3216 41.0052 84.375 41.3242 82.9688 41.3242H82.5C77.3568 41.3242 72.5846 39.2539 68.1836 35.1133C64.4466 30.9727 62.5781 26.1615 62.5781 20.6797V20.4453C62.5781 20.263 62.6172 20.1068 62.6953 19.9766C62.6953 19.8854 62.6562 19.8398 62.5781 19.8398C63.0859 15.9596 64.1211 12.8216 65.6836 10.4258C68.1576 6.40234 71.9727 3.53776 77.1289 1.83203C79.056 1.28516 80.7227 1.01172 82.1289 1.01172ZM79.3945 13.8828L79.5117 17.5742C79.5117 17.6914 79.3945 17.8151 79.1602 17.9453H77.1289V22.1055H79.1602C79.2773 22.1055 79.3945 22.2292 79.5117 22.4766V32.7305L79.5703 33.4531H83.8086V22.3594C83.8346 22.1901 83.9128 22.1055 84.043 22.1055H87.5C87.6562 22.1055 87.8581 20.7969 88.1055 18.1797V17.9453H84.043C83.8867 17.9453 83.8086 17.8672 83.8086 17.7109V14.8398C83.8086 13.6159 84.5247 12.9388 85.957 12.8086H88.3398V9.23438C88.3398 9 87.5065 8.88281 85.8398 8.88281H85.2344C82.487 8.88281 80.6966 9.91146 79.8633 11.9688C79.707 12.3984 79.5508 13.0365 79.3945 13.8828ZM143.008 1.05078H145.879C148.952 1.05078 152.448 2.32031 156.367 4.85938C159.323 7.16406 161.465 9.82682 162.793 12.8477C163.991 15.7253 164.59 18.1536 164.59 20.1328V21.793C164.59 26.2461 162.76 30.6602 159.102 35.0352C154.857 39.1628 149.928 41.2266 144.316 41.2266C137.311 41.2266 131.589 37.9648 127.148 31.4414C125.247 27.9258 124.297 24.4688 124.297 21.0703C124.297 15.4714 126.602 10.4258 131.211 5.93359C135.508 2.67839 139.44 1.05078 143.008 1.05078ZM133.711 18.4531V24.6641C133.711 28.0495 134.785 30.3086 136.934 31.4414C137.897 31.9883 140.996 32.1901 146.23 32.0469C150.241 32.0469 152.546 31.6107 153.145 30.7383C154.499 29.6576 155.176 27.8672 155.176 25.3672V17.3789C155.176 14.2279 154.062 12.1641 151.836 11.1875L150.352 10.6992L148.848 10.582H140.156C137.057 10.582 134.987 12.0924 133.945 15.1133C133.789 16.0378 133.711 17.151 133.711 18.4531ZM140.508 12.4961H148.848C151.868 12.4961 153.379 14.0846 153.379 17.2617V25.7188C152.975 28.6615 151.745 30.1328 149.688 30.1328H146.23C144.616 30.1328 142.91 30.1719 141.113 30.25C138.118 30.25 136.367 29.2995 135.859 27.3984C135.703 26.3438 135.625 24.7552 135.625 22.6328V19.9961C135.625 16.0247 135.944 14.0391 136.582 14.0391C137.22 13.0104 138.529 12.4961 140.508 12.4961ZM148.965 15.7188C149.316 16.513 149.759 16.9102 150.293 16.9102C150.827 16.9102 151.263 16.513 151.602 15.7188C151.419 14.7552 150.938 14.2734 150.156 14.2734C149.362 14.5208 148.965 15.0026 148.965 15.7188ZM138.965 21.4414C138.965 24.0065 140.436 25.7904 143.379 26.793H145.762C148.613 25.7643 150.039 23.9414 150.039 21.3242V21.0703C150.039 19.5859 149.284 18.1992 147.773 16.9102C146.745 16.194 145.677 15.8359 144.57 15.8359H144.453C141.992 15.8359 140.28 17.1055 139.316 19.6445C139.186 19.8138 139.069 20.4128 138.965 21.4414ZM144.453 17.7305H144.57C146.289 17.7305 147.441 18.6484 148.027 20.4844C148.105 20.5885 148.145 20.8685 148.145 21.3242C147.767 23.7852 146.576 25.0156 144.57 25.0156C142.982 25.0156 141.829 24.2214 141.113 22.6328C141.009 22.5026 140.924 22.1055 140.859 21.4414C141.146 18.9674 142.344 17.7305 144.453 17.7305Z" fill="#848484"/>
</svg>
